# xmcd
#
# Track frame offsets: 
#        150
#        4876
#        32696
#        51383
#        55776
#        84943
#        114781
#        147363
#        173183
#        185905
#
# Disc length: 2605 seconds
#
# Revision: 0
# Processed by: cddbd v1.5.2PL0 Copyright (c) Steve Scherf et al.
# Submitted via: ExactAudioCopy v0.95b4
#
DISCID=810a2b0a
DTITLE=B.B. King - 1969 Texas International Pop Festival
DYEAR=1900
DGENRE=Blues
TTITLE0=Introduction
TTITLE1=Sweet Sixteen
TTITLE2=Please Accept My Love
TTITLE3=Band Intros
TTITLE4=Everybody Wants To Know Why I Sing The Blues
TTITLE5=Dont' Want A Soul Hanging Around->It Aint' My Cross To Bear
TTITLE6=What's Wrong Little Mama
TTITLE7=How Blue Can You Get
TTITLE8=Whole Lot Of Lovin'
TTITLE9=Everyday I Have The Blues
EXTD=
EXTT0=
EXTT1=
EXTT2=
EXTT3=
EXTT4=
EXTT5=
EXTT6=
EXTT7=
EXTT8=
EXTT9=
PLAYORDER=
